Jakob the Liar (1999)

PG_13  

120 min  -  Comedy | Drama | War  
Released : 24 September 1999 (USA) 

________________________________________________________________________________

Directed by
Peter Kassovitz	 	
 
Writing credits : Jurek Becker (novel \\\"Jakob der Lügner\\\")
Peter Kassovitz (screenplay) & Didier Decoin (screenplay)


Plot Summary 

In 1944 Poland, a Jewish shop keeper named Jakob is summoned to ghetto headquarters after being caught out near curfew. While waiting for the German Kommondant, Jakob overhears a German radio broadcast about Russian troop movements. Returned to the ghetto, the shopkeeper shares his information with a friend and then rumors fly that there is a secret radio within the ghetto. Jakob uses the chance to spread hope throughout the ghetto by continuing to tell favorable tales of information from \\\"his secret radio.\\\" Jakob, however, has a real secret in that he is hiding a young Jewish girl who escaped from a camp transport train. A rather uplifting and slightly humorous film about World War II Jewish Ghetto life.

During World War II in Nazi occupied Poland, poor Jewish café owner Jakob (\\\'Robin Williams\\\' ) accidentally overhears a forbidden radio news bulletin signaling Soviet military successes against German forces. To fight the incredible depression and suicide throughout the ghetto, Jakob tells fictitious news bulletins about Allied advances against the Nazis. These lies keep hope and humor alive among the ghetto inhabitants. The Germans learn of the mythical radio, however, and begin a search for the resistance hero who dares operate it.

________________________________________________________________________________

Media Info : 

Format                           : Matroska
File size                        : 1.23 GiB
Duration                         : 1h 55mn
Overall bit rate                 : 1 523 Kbps
Encoded date                     : UTC 2012-02-11 12:16:13
Writing library                  : WonderShare Matroska Muxer

Video
ID                               : 1
Format                           : AVC
Format/Info                      : Advanced Video Codec
Format profile                   : Baseline@L3.0
Format settings, CABAC           : No
Format settings, ReFrames        : 1 frame
Format settings, GOP             : M=1, N=25
Codec ID                         : V_MPEG4/ISO/AVC
Duration                         : 1h 55mn
Bit rate                         : 1 237 Kbps
Width                            : 720 pixels
Height                           : 576 pixels
Display aspect ratio             : 5:4
Frame rate                       : 29.970 fps
Original frame rate              : 29.000 fps
Standard                         : PAL
Color space                      : YUV
Chroma subsampling               : 4:2:0
Bit depth                        : 8 bits
Scan type                        : Progressive
Bits/(Pixel*Frame)               : 0.100
Stream size                      : 1 019 MiB (81%)

Audio
ID                               : 2
Format                           : AC-3
Format/Info                      : Audio Coding 3
Mode extension                   : CM (complete main)
Codec ID                         : A_AC3
Duration                         : 1h 55mn
Bit rate mode                    : Constant
Bit rate                         : 256 Kbps
Channel(s)                       : 6 channels
Channel positions                : Front: L C R, Side: L R, LFE
Sampling rate                    : 44.1 KHz
Bit depth                        : 16 bits
Compression mode                 : Lossy
Delay relative to video          : 31ms
Stream size                      : 211 MiB (17%)

Test 

Hard Coded English Subtitle